<?xml version="1.0" standalone="no"?>
<!DOCTYPE svg PUBLIC "-//W3C//DTD SVG 1.1//EN" "http://www.w3.org/Graphics/SVG/1.1/DTD/svg11.dtd">
<svg width="100%" height="100%" viewBox="0 0 1654 1654" version="1.1" xmlns="http://www.w3.org/2000/svg" xmlns:xlink="http://www.w3.org/1999/xlink" xml:space="preserve" style="fill-rule:evenodd;clip-rule:evenodd;stroke-linejoin:round;stroke-miterlimit:1.41421;">
    <g transform="matrix(1.51147,0,0,1.51147,2309.52,-1806.2)">
        <clipPath id="_clip1">
            <circle cx="-981" cy="1742" r="547"/>
        </clipPath>
        <g clip-path="url(#_clip1)">
            <g transform="matrix(0.952658,0,0,1.00621,-29.0151,-10.8177)">
                <g transform="matrix(0.652873,0,0,0.637901,-1617.03,1355.75)">
                    <rect x="286" y="238" width="49" height="49" style="fill:rgb(209,51,131);"/>
                </g>
                <g transform="matrix(0.652873,0,0,0.637901,-1585.04,1355.75)">
                    <rect x="286" y="238" width="49" height="49" style="fill:rgb(209,51,131);"/>
                </g>
                <g transform="matrix(0.635354,0,0,0.637901,-1548.04,1355.75)">
                    <rect x="286" y="238" width="49" height="49" style="fill:rgb(209,51,131);"/>
                </g>
                <g transform="matrix(0.670392,0,0,0.637901,-1526.93,1355.75)">
                    <rect x="286" y="238" width="49" height="49" style="fill:rgb(209,51,131);"/>
                </g>
                <g transform="matrix(0.652873,0,0,0.637901,-1649.02,1355.75)">
                    <rect x="286" y="238" width="49" height="49" style="fill:rgb(209,51,131);"/>
                </g>
                <g transform="matrix(0.652873,0,0,0.637901,-1425.09,1355.75)">
                    <rect x="286" y="238" width="49" height="49" style="fill:rgb(209,51,131);"/>
                </g>
                <g transform="matrix(0.652873,0,0,0.637901,-1394.81,1355.75)">
                    <rect x="286" y="238" width="49" height="49" style="fill:rgb(209,51,131);"/>
                </g>
                <g transform="matrix(0.635354,0,0,0.637901,-1357.81,1355.75)">
                    <rect x="286" y="238" width="49" height="49" style="fill:rgb(209,51,131);"/>
                </g>
                <g transform="matrix(0.635354,0,0,0.637901,-1326.68,1355.75)">
                    <rect x="286" y="238" width="49" height="49" style="fill:rgb(209,51,131);"/>
                </g>
                <g transform="matrix(0.68791,0,0,0.637901,-1468.82,1355.75)">
                    <rect x="286" y="238" width="49" height="49" style="fill:rgb(209,51,131);"/>
                </g>
                <g transform="matrix(0.679151,0,0,0.637901,-1243.02,1355.75)">
                    <rect x="286" y="238" width="49" height="49" style="fill:rgb(209,51,131);"/>
                </g>
                <g transform="matrix(0.652873,0,0,0.637901,-1202.87,1355.75)">
                    <rect x="286" y="238" width="49" height="49" style="fill:rgb(209,51,131);"/>
                </g>
                <g transform="matrix(0.679151,0,0,0.637901,-1243.66,1418.27)">
                    <rect x="286" y="238" width="49" height="49" style="fill:rgb(209,51,131);"/>
                </g>
                <g transform="matrix(0.652873,0,0,0.637901,-1202.87,1418.27)">
                    <rect x="286" y="238" width="49" height="49" style="fill:rgb(209,51,131);"/>
                </g>
                <g transform="matrix(0.652873,0,0,0.637901,-1170.88,1355.75)">
                    <rect x="286" y="238" width="49" height="49" style="fill:rgb(209,51,131);"/>
                </g>
                <g transform="matrix(0.652873,0,0,0.637901,-1170.88,1418.27)">
                    <rect x="286" y="238" width="49" height="49" style="fill:rgb(209,51,131);"/>
                </g>
                <g transform="matrix(0.635354,0,0,0.637901,-1133.88,1387.01)">
                    <rect x="286" y="238" width="49" height="49" style="fill:rgb(209,51,131);"/>
                </g>
                <g transform="matrix(0.644113,0,0,0.637901,-1264.35,1387.01)">
                    <rect x="286" y="238" width="49" height="49" style="fill:rgb(209,51,131);"/>
                </g>
                <g transform="matrix(0.635354,0,0,0.637901,-1133.88,1355.75)">
                    <rect x="286" y="238" width="49" height="49" style="fill:rgb(209,51,131);"/>
                </g>
                <g transform="matrix(0.652873,0,0,0.637901,-1266.85,1355.75)">
                    <rect x="286" y="238" width="49" height="49" style="fill:rgb(209,51,131);"/>
                </g>
                <g transform="matrix(0.635354,0,0,0.637901,-1133.88,1418.27)">
                    <rect x="286" y="238" width="49" height="49" style="fill:rgb(209,51,131);"/>
                </g>
                <g transform="matrix(0.644113,0,0,0.637901,-1264.35,1418.27)">
                    <rect x="286" y="238" width="49" height="49" style="fill:rgb(209,51,131);"/>
                </g>
                <g transform="matrix(0.635354,0,0,0.637901,-1133.88,1449.52)">
                    <rect x="286" y="238" width="49" height="49" style="fill:rgb(209,51,131);"/>
                </g>
                <g transform="matrix(0.644113,0,0,0.637901,-1264.35,1449.52)">
                    <rect x="286" y="238" width="49" height="49" style="fill:rgb(209,51,131);"/>
                </g>
                <g transform="matrix(0.635354,0,0,0.637901,-1133.88,1480.78)">
                    <rect x="286" y="238" width="49" height="49" style="fill:rgb(209,51,131);"/>
                </g>
                <g transform="matrix(0.644113,0,0,0.637901,-1264.35,1480.78)">
                    <rect x="286" y="238" width="49" height="49" style="fill:rgb(209,51,131);"/>
                </g>
                <g transform="matrix(0.679151,0,0,0.637901,-1338.13,1668.32)">
                    <rect x="286" y="238" width="49" height="49" style="fill:rgb(209,51,131);"/>
                </g>
                <g transform="matrix(0.652873,0,0,0.637901,-1297.98,1668.32)">
                    <rect x="286" y="238" width="49" height="49" style="fill:rgb(209,51,131);"/>
                </g>
                <g transform="matrix(0.679151,0,0,0.637901,-1338.78,1730.84)">
                    <rect x="286" y="238" width="49" height="49" style="fill:rgb(209,51,131);"/>
                </g>
                <g transform="matrix(0.652873,0,0,0.637901,-1297.98,1730.84)">
                    <rect x="286" y="238" width="49" height="49" style="fill:rgb(209,51,131);"/>
                </g>
                <g transform="matrix(0.652873,0,0,0.637901,-1265.99,1668.32)">
                    <rect x="286" y="238" width="49" height="49" style="fill:rgb(209,51,131);"/>
                </g>
                <g transform="matrix(0.652873,0,0,0.637901,-1265.99,1730.84)">
                    <rect x="286" y="238" width="49" height="49" style="fill:rgb(209,51,131);"/>
                </g>
                <g transform="matrix(0.635354,0,0,0.637901,-1228.99,1699.58)">
                    <rect x="286" y="238" width="49" height="49" style="fill:rgb(209,51,131);"/>
                </g>
                <g transform="matrix(0.644113,0,0,0.637901,-1359.46,1699.58)">
                    <rect x="286" y="238" width="49" height="49" style="fill:rgb(209,51,131);"/>
                </g>
                <g transform="matrix(0.635354,0,0,0.637901,-1228.99,1668.32)">
                    <rect x="286" y="238" width="49" height="49" style="fill:rgb(209,51,131);"/>
                </g>
                <g transform="matrix(0.652873,0,0,0.637901,-1361.96,1668.32)">
                    <rect x="286" y="238" width="49" height="49" style="fill:rgb(209,51,131);"/>
                </g>
                <g transform="matrix(0.635354,0,0,0.637901,-1228.99,1730.84)">
                    <rect x="286" y="238" width="49" height="49" style="fill:rgb(209,51,131);"/>
                </g>
                <g transform="matrix(0.644113,0,0,0.637901,-1359.46,1730.84)">
                    <rect x="286" y="238" width="49" height="49" style="fill:rgb(209,51,131);"/>
                </g>
                <g transform="matrix(0.635354,0,0,0.637901,-1228.99,1762.09)">
                    <rect x="286" y="238" width="49" height="49" style="fill:rgb(209,51,131);"/>
                </g>
                <g transform="matrix(0.644113,0,0,0.637901,-1359.46,1762.09)">
                    <rect x="286" y="238" width="49" height="49" style="fill:rgb(209,51,131);"/>
                </g>
                <g transform="matrix(0.635354,0,0,0.637901,-1228.99,1793.35)">
                    <rect x="286" y="238" width="49" height="49" style="fill:rgb(209,51,131);"/>
                </g>
                <g transform="matrix(0.652873,0,0,0.637901,-1170.88,1699.58)">
                    <rect x="286" y="238" width="49" height="49" style="fill:rgb(209,51,131);"/>
                </g>
                <g transform="matrix(0.652873,0,0,0.637901,-1170.88,1668.32)">
                    <rect x="286" y="238" width="49" height="49" style="fill:rgb(209,51,131);"/>
                </g>
                <g transform="matrix(0.652873,0,0,0.637901,-1138.89,1699.58)">
                    <rect x="286" y="238" width="49" height="49" style="fill:rgb(209,51,131);"/>
                </g>
                <g transform="matrix(0.656572,0,0,0.637901,-1108.14,1730.84)">
                    <rect x="286" y="238" width="49" height="49" style="fill:rgb(209,51,131);"/>
                </g>
                <g transform="matrix(0.652873,0,0,0.637901,-1074.91,1699.58)">
                    <rect x="286" y="238" width="49" height="49" style="fill:rgb(209,51,131);"/>
                </g>
                <g transform="matrix(0.635354,0,0,0.637901,-1037.91,1668.32)">
                    <rect x="286" y="238" width="49" height="49" style="fill:rgb(209,51,131);"/>
                </g>
                <g transform="matrix(0.652873,0,0,0.637901,-1170.88,1730.84)">
                    <rect x="286" y="238" width="49" height="49" style="fill:rgb(209,51,131);"/>
                </g>
                <g transform="matrix(0.652873,0,0,0.637901,-1170.88,1762.09)">
                    <rect x="286" y="238" width="49" height="49" style="fill:rgb(209,51,131);"/>
                </g>
                <g transform="matrix(0.652873,0,0,0.637901,-1170.88,1793.35)">
                    <rect x="286" y="238" width="49" height="49" style="fill:rgb(209,51,131);"/>
                </g>
                <g transform="matrix(0.635354,0,0,0.637901,-1037.91,1699.58)">
                    <rect x="286" y="238" width="49" height="49" style="fill:rgb(209,51,131);"/>
                </g>
                <g transform="matrix(0.635354,0,0,0.637901,-1037.91,1730.84)">
                    <rect x="286" y="238" width="49" height="49" style="fill:rgb(209,51,131);"/>
                </g>
                <g transform="matrix(0.635354,0,0,0.637901,-1037.91,1762.09)">
                    <rect x="286" y="238" width="49" height="49" style="fill:rgb(209,51,131);"/>
                </g>
                <g transform="matrix(0.635354,0,0,0.637901,-1037.91,1793.35)">
                    <rect x="286" y="238" width="49" height="49" style="fill:rgb(209,51,131);"/>
                </g>
                <g transform="matrix(0.644113,0,0,0.637901,-1359.46,1793.35)">
                    <rect x="286" y="238" width="49" height="49" style="fill:rgb(209,51,131);"/>
                </g>
                <g transform="matrix(0.679151,0,0,0.637901,-954.244,1668.32)">
                    <rect x="286" y="238" width="49" height="49" style="fill:rgb(209,51,131);"/>
                </g>
                <g transform="matrix(0.652873,0,0,0.637901,-914.094,1668.32)">
                    <rect x="286" y="238" width="49" height="49" style="fill:rgb(209,51,131);"/>
                </g>
                <g transform="matrix(0.679151,0,0,0.637901,-954.888,1730.84)">
                    <rect x="286" y="238" width="49" height="49" style="fill:rgb(209,51,131);"/>
                </g>
                <g transform="matrix(0.652873,0,0,0.637901,-914.094,1730.84)">
                    <rect x="286" y="238" width="49" height="49" style="fill:rgb(209,51,131);"/>
                </g>
                <g transform="matrix(0.652873,0,0,0.637901,-882.103,1668.32)">
                    <rect x="286" y="238" width="49" height="49" style="fill:rgb(209,51,131);"/>
                </g>
                <g transform="matrix(0.679151,0,0,0.637901,-954.888,1793.35)">
                    <rect x="286" y="238" width="49" height="49" style="fill:rgb(209,51,131);"/>
                </g>
                <g transform="matrix(0.652873,0,0,0.637901,-914.094,1793.35)">
                    <rect x="286" y="238" width="49" height="49" style="fill:rgb(209,51,131);"/>
                </g>
                <g transform="matrix(0.652873,0,0,0.637901,-882.103,1793.35)">
                    <rect x="286" y="238" width="49" height="49" style="fill:rgb(209,51,131);"/>
                </g>
                <g transform="matrix(0.644113,0,0,0.637901,-975.57,1699.58)">
                    <rect x="286" y="238" width="49" height="49" style="fill:rgb(209,51,131);"/>
                </g>
                <g transform="matrix(0.652873,0,0,0.637901,-978.076,1668.32)">
                    <rect x="286" y="238" width="49" height="49" style="fill:rgb(209,51,131);"/>
                </g>
                <g transform="matrix(0.644113,0,0,0.637901,-975.57,1730.84)">
                    <rect x="286" y="238" width="49" height="49" style="fill:rgb(209,51,131);"/>
                </g>
                <g transform="matrix(0.644113,0,0,0.637901,-975.57,1762.09)">
                    <rect x="286" y="238" width="49" height="49" style="fill:rgb(209,51,131);"/>
                </g>
                <g transform="matrix(0.644113,0,0,0.637901,-975.57,1793.35)">
                    <rect x="286" y="238" width="49" height="49" style="fill:rgb(209,51,131);"/>
                </g>
                <g transform="matrix(0.679151,0,0,0.637901,-1048.29,1355.75)">
                    <rect x="286" y="238" width="49" height="49" style="fill:rgb(209,51,131);"/>
                </g>
                <g transform="matrix(0.652873,0,0,0.637901,-1007.49,1355.75)">
                    <rect x="286" y="238" width="49" height="49" style="fill:rgb(209,51,131);"/>
                </g>
                <g transform="matrix(0.679151,0,0,0.637901,-1048.29,1418.27)">
                    <rect x="286" y="238" width="49" height="49" style="fill:rgb(209,51,131);"/>
                </g>
                <g transform="matrix(0.635354,0,0,0.637901,-1002.48,1418.27)">
                    <rect x="286" y="238" width="49" height="49" style="fill:rgb(209,51,131);"/>
                </g>
                <g transform="matrix(0.652873,0,0,0.637901,-978.076,1355.75)">
                    <rect x="286" y="238" width="49" height="49" style="fill:rgb(209,51,131);"/>
                </g>
                <g transform="matrix(0.635354,0,0,0.637901,-972.207,1418.27)">
                    <rect x="286" y="238" width="49" height="49" style="fill:rgb(209,51,131);"/>
                </g>
                <g transform="matrix(0.635354,0,0,0.637901,-941.074,1387.01)">
                    <rect x="286" y="238" width="49" height="49" style="fill:rgb(209,51,131);"/>
                </g>
                <g transform="matrix(0.644113,0,0,0.637901,-1069.83,1387.01)">
                    <rect x="286" y="238" width="49" height="49" style="fill:rgb(209,51,131);"/>
                </g>
                <g transform="matrix(0.652873,0,0,0.637901,-1072.33,1355.75)">
                    <rect x="286" y="238" width="49" height="49" style="fill:rgb(209,51,131);"/>
                </g>
                <g transform="matrix(0.635354,0,0,0.637901,-941.074,1418.27)">
                    <rect x="286" y="238" width="49" height="49" style="fill:rgb(209,51,131);"/>
                </g>
                <g transform="matrix(0.644113,0,0,0.637901,-1069.83,1418.27)">
                    <rect x="286" y="238" width="49" height="49" style="fill:rgb(209,51,131);"/>
                </g>
                <g transform="matrix(0.635354,0,0,0.637901,-972.207,1449.52)">
                    <rect x="286" y="238" width="49" height="49" style="fill:rgb(209,51,131);"/>
                </g>
                <g transform="matrix(0.644113,0,0,0.637901,-1069.83,1449.52)">
                    <rect x="286" y="238" width="49" height="49" style="fill:rgb(209,51,131);"/>
                </g>
                <g transform="matrix(0.635354,0,0,0.637901,-941.074,1480.78)">
                    <rect x="286" y="238" width="49" height="49" style="fill:rgb(209,51,131);"/>
                </g>
                <g transform="matrix(0.644113,0,0,0.637901,-1069.83,1480.78)">
                    <rect x="286" y="238" width="49" height="49" style="fill:rgb(209,51,131);"/>
                </g>
                <g transform="matrix(0.652873,0,0,0.637901,-1522.78,1668.32)">
                    <rect x="286" y="238" width="49" height="49" style="fill:rgb(209,51,131);"/>
                </g>
                <g transform="matrix(0.652873,0,0,0.637901,-1490.79,1668.32)">
                    <rect x="286" y="238" width="49" height="49" style="fill:rgb(209,51,131);"/>
                </g>
                <g transform="matrix(0.635354,0,0,0.637901,-1453.79,1668.32)">
                    <rect x="286" y="238" width="49" height="49" style="fill:rgb(209,51,131);"/>
                </g>
                <g transform="matrix(0.670392,0,0,0.637901,-1432.67,1668.32)">
                    <rect x="286" y="238" width="49" height="49" style="fill:rgb(209,51,131);"/>
                </g>
                <g transform="matrix(0.652873,0,0,0.637901,-1490.79,1793.35)">
                    <rect x="286" y="238" width="49" height="49" style="fill:rgb(209,51,131);"/>
                </g>
                <g transform="matrix(0.652873,0,0,0.637901,-1458.8,1793.35)">
                    <rect x="286" y="238" width="49" height="49" style="fill:rgb(209,51,131);"/>
                </g>
                <g transform="matrix(0.652873,0,0,0.637901,-1426.8,1793.35)">
                    <rect x="286" y="238" width="49" height="49" style="fill:rgb(209,51,131);"/>
                </g>
                <g transform="matrix(0.652873,0,0,0.637901,-1426.8,1762.09)">
                    <rect x="286" y="238" width="49" height="49" style="fill:rgb(209,51,131);"/>
                </g>
                <g transform="matrix(0.652873,0,0,0.637901,-1426.8,1730.84)">
                    <rect x="286" y="238" width="49" height="49" style="fill:rgb(209,51,131);"/>
                </g>
                <g transform="matrix(0.652873,0,0,0.637901,-1458.8,1730.84)">
                    <rect x="286" y="238" width="49" height="49" style="fill:rgb(209,51,131);"/>
                </g>
                <g transform="matrix(0.652873,0,0,0.637901,-1490.79,1730.84)">
                    <rect x="286" y="238" width="49" height="49" style="fill:rgb(209,51,131);"/>
                </g>
                <g transform="matrix(0.652873,0,0,0.637901,-1554.77,1668.32)">
                    <rect x="286" y="238" width="49" height="49" style="fill:rgb(209,51,131);"/>
                </g>
                <g transform="matrix(0.652873,0,0,0.637901,-1649.02,1387.01)">
                    <rect x="286" y="238" width="49" height="49" style="fill:rgb(209,51,131);"/>
                </g>
                <g transform="matrix(0.652873,0,0,0.637901,-1649.02,1418.27)">
                    <rect x="286" y="238" width="49" height="49" style="fill:rgb(209,51,131);"/>
                </g>
                <g transform="matrix(0.652873,0,0,0.637901,-1617.03,1418.27)">
                    <rect x="286" y="238" width="49" height="49" style="fill:rgb(209,51,131);"/>
                </g>
                <g transform="matrix(0.652873,0,0,0.637901,-1585.04,1418.27)">
                    <rect x="286" y="238" width="49" height="49" style="fill:rgb(209,51,131);"/>
                </g>
                <g transform="matrix(0.652873,0,0,0.637901,-1553.05,1418.27)">
                    <rect x="286" y="238" width="49" height="49" style="fill:rgb(209,51,131);"/>
                </g>
                <g transform="matrix(0.652873,0,0,0.637901,-1521.06,1449.52)">
                    <rect x="286" y="238" width="49" height="49" style="fill:rgb(209,51,131);"/>
                </g>
                <g transform="matrix(0.652873,0,0,0.637901,-1521.06,1418.27)">
                    <rect x="286" y="238" width="49" height="49" style="fill:rgb(209,51,131);"/>
                </g>
                <g transform="matrix(0.652873,0,0,0.637901,-1521.06,1480.78)">
                    <rect x="286" y="238" width="49" height="49" style="fill:rgb(209,51,131);"/>
                </g>
                <g transform="matrix(0.652873,0,0,0.637901,-1394.81,1418.27)">
                    <rect x="286" y="238" width="49" height="49" style="fill:rgb(209,51,131);"/>
                </g>
                <g transform="matrix(0.652873,0,0,0.637901,-1394.81,1387.01)">
                    <rect x="286" y="238" width="49" height="49" style="fill:rgb(209,51,131);"/>
                </g>
                <g transform="matrix(0.652873,0,0,0.637901,-1394.81,1449.52)">
                    <rect x="286" y="238" width="49" height="49" style="fill:rgb(209,51,131);"/>
                </g>
                <g transform="matrix(0.652873,0,0,0.637901,-1394.81,1480.78)">
                    <rect x="286" y="238" width="49" height="49" style="fill:rgb(209,51,131);"/>
                </g>
                <g transform="matrix(0.652873,0,0,0.637901,-850.971,1355.75)">
                    <rect x="286" y="238" width="49" height="49" style="fill:rgb(209,51,131);"/>
                </g>
                <g transform="matrix(0.652873,0,0,0.637901,-818.98,1355.75)">
                    <rect x="286" y="238" width="49" height="49" style="fill:rgb(209,51,131);"/>
                </g>
                <g transform="matrix(0.635354,0,0,0.637901,-781.979,1355.75)">
                    <rect x="286" y="238" width="49" height="49" style="fill:rgb(209,51,131);"/>
                </g>
                <g transform="matrix(0.670392,0,0,0.637901,-760.867,1355.75)">
                    <rect x="286" y="238" width="49" height="49" style="fill:rgb(209,51,131);"/>
                </g>
                <g transform="matrix(0.652873,0,0,0.637901,-882.962,1355.75)">
                    <rect x="286" y="238" width="49" height="49" style="fill:rgb(209,51,131);"/>
                </g>
                <g transform="matrix(0.652873,0,0,0.637901,-818.98,1418.27)">
                    <rect x="286" y="238" width="49" height="49" style="fill:rgb(209,51,131);"/>
                </g>
                <g transform="matrix(0.652873,0,0,0.637901,-818.98,1387.01)">
                    <rect x="286" y="238" width="49" height="49" style="fill:rgb(209,51,131);"/>
                </g>
                <g transform="matrix(0.652873,0,0,0.637901,-818.98,1449.52)">
                    <rect x="286" y="238" width="49" height="49" style="fill:rgb(209,51,131);"/>
                </g>
                <g transform="matrix(0.652873,0,0,0.637901,-818.98,1480.78)">
                    <rect x="286" y="238" width="49" height="49" style="fill:rgb(209,51,131);"/>
                </g>
                <g transform="matrix(0.652873,0,0,0.637901,-1554.77,1699.58)">
                    <rect x="286" y="238" width="49" height="49" style="fill:rgb(209,51,131);"/>
                </g>
                <g transform="matrix(0.652873,0,0,0.637901,-1554.77,1762.09)">
                    <rect x="286" y="238" width="49" height="49" style="fill:rgb(209,51,131);"/>
                </g>
                <g transform="matrix(0.652873,0,0,0.637901,-1554.77,1730.84)">
                    <rect x="286" y="238" width="49" height="49" style="fill:rgb(209,51,131);"/>
                </g>
                <g transform="matrix(0.652873,0,0,0.637901,-1554.77,1793.35)">
                    <rect x="286" y="238" width="49" height="49" style="fill:rgb(209,51,131);"/>
                </g>
                <g transform="matrix(0.652873,0,0,0.637901,-1522.78,1793.35)">
                    <rect x="286" y="238" width="49" height="49" style="fill:rgb(209,51,131);"/>
                </g>
                <g transform="matrix(0.652873,0,0,0.637901,-1553.05,1480.78)">
                    <rect x="286" y="238" width="49" height="49" style="fill:rgb(209,51,131);"/>
                </g>
                <g transform="matrix(0.652873,0,0,0.637901,-1585.04,1480.78)">
                    <rect x="286" y="238" width="49" height="49" style="fill:rgb(209,51,131);"/>
                </g>
                <g transform="matrix(0.652873,0,0,0.637901,-1617.03,1480.78)">
                    <rect x="286" y="238" width="49" height="49" style="fill:rgb(209,51,131);"/>
                </g>
                <g transform="matrix(0.652873,0,0,0.637901,-1649.02,1480.78)">
                    <rect x="286" y="238" width="49" height="49" style="fill:rgb(209,51,131);"/>
                </g>
            </g>
        </g>
    </g>
</svg>
